<?xml version="1.0" encoding="UTF-8"?>
<svg width="147px" height="43px" viewBox="0 0 147 43" version="1.1" xmlns="http://www.w3.org/2000/svg" xmlns:xlink="http://www.w3.org/1999/xlink">
    <!-- Generator: Sketch 63.1 (92452) - https://sketch.com -->
    <title>Logo</title>
    <desc>Created with Sketch.</desc>
    <g id="05-Logos" stroke="none" stroke-width="1" fill="none" fill-rule="evenodd">
        <g id="Logo/Queensland-Cropped" transform="translate(-1.000000, 0.000000)" fill="#FFFFFF">
            <path d="M102.645848,0.494223229 C103.966392,-0.107695664 104.483431,-0.143394313 105.583386,0.297880658 C105.956692,0.486290196 107.272246,0.907732583 107.492835,1.70996056 C107.873128,3.09427485 108.153607,3.38680545 107.907065,6.05032134 C107.844182,6.73851197 107.74836,7.43761052 107.585663,8.12480952 C107.453908,8.68408836 106.935871,10.1497162 106.877979,10.278628 C106.742231,10.5741335 106.562565,10.8745971 106.434803,11.1760524 C106.128373,11.8959752 105.227048,13.5857112 105.227048,13.5857112 C104.751932,14.3760397 103.557153,16.4723437 102.87043,17.3767095 C102.66082,17.6513907 102.009032,18.3633805 101.327299,19.1874243 C100.067642,20.7105667 98.5005554,22.60557 97.9855131,23.3562332 L97.9855131,23.3562332 L97.873721,23.5188604 C97.4535023,24.1306956 97.0562409,24.7078238 96.5561708,25.281977 C96.4154324,25.442621 96.0201674,27.0996333 95.9892249,27.2711851 C95.8764346,27.8978947 95.8534773,28.9043983 95.8245311,29.1969289 C95.6408726,31.0195433 95.3214665,31.9913398 95.2885278,32.2561048 C95.2246466,32.763819 95.220654,33.6691764 95.1907097,34.2175473 C95.1617635,34.7669098 95.2865315,36.0500779 95.3653849,36.3931816 C95.615919,37.4928984 96.1988352,38.9555513 96.7907346,39.6189512 C97.3327269,40.2258283 98.2001141,40.9308766 99.0684994,41.1936583 C99.924907,41.4564401 100.531779,41.4990801 101.432105,41.2273737 C102.501117,40.9041026 104.085172,40.2764014 104.708013,39.951147 C104.797846,39.9045404 105.755067,39.3541863 105.899798,39.3135295 C106.227189,39.2222996 107.389028,38.480561 106.784153,40.0463434 C106.658387,40.3725894 105.823939,41.7122804 104.932596,42.2041284 C104.337702,42.5333493 102.362375,42.9369424 101.499978,42.9825573 C99.1703101,43.1055193 97.5193798,42.5710312 95.7856035,41.6111342 C95.3743682,41.3830595 95.0280122,41.0151651 94.7205838,40.699827 C94.2574449,40.2278115 93.6974861,39.8400845 93.3541245,39.413684 C92.5076984,38.3595822 92.1613424,37.2529241 91.853914,35.7367231 C91.7121775,35.0356413 91.7700699,34.0945853 91.8079994,33.0137095 C91.8309567,32.3413849 91.8219734,32.1559503 91.902823,31.4251196 C91.9187933,31.2843083 91.999643,30.4057248 92.0265929,30.2391311 C92.089476,29.8573539 92.1483665,29.6927435 92.0954649,29.2157699 C92.0804927,29.0799167 92.0046337,29.0491762 91.9257804,28.9817454 C91.888849,28.9490216 91.8379437,28.9311723 91.7890346,28.9321639 C91.757094,28.9321639 91.7241553,28.940097 91.6952091,28.9569547 L91.6952091,28.9569547 L91.4536582,29.0908246 C91.2550275,29.2008954 90.8487829,29.539041 90.3976218,29.635229 C90.1959967,29.6867937 89.0950437,29.9128852 89.0032145,29.5092921 C88.9572999,29.3060081 89.4134517,28.7090474 89.7198819,28.3431362 C89.8696035,28.1636513 90.0133363,27.9920995 90.1231321,27.8403802 C90.4076032,27.4476951 91.3668197,26.1546107 92.8570488,24.2219255 C92.8740172,24.199118 92.8849968,24.1733356 92.8889894,24.1475533 C93.0137574,23.247154 93.2333491,22.3814618 93.4319798,21.6526144 C93.5807032,21.1052351 93.877152,19.733812 94.1646175,18.4070122 C94.4421016,17.1248357 94.7295671,15.7970442 94.867311,15.2863552 C95.2006911,14.05971 96.2537331,10.6782546 96.4114399,10.2746615 C96.8406418,9.13527962 97.2658512,7.84417847 97.8457729,6.60067552 C97.9545706,6.3686343 98.1202625,6.13262656 98.2240695,5.8956272 C98.4506482,5.37601352 98.7221434,4.39925881 98.9926405,3.89352795 C99.7432448,2.48938107 101.326301,1.09614212 102.645848,0.494223229 Z M18.9894903,2 C21.4706549,2 25.472436,3.72155558 27.1094827,6.15911282 C28.096127,7.53694821 28.7575701,9.25948866 29.1680864,11.2893091 C29.543473,13.1418526 29.8285259,15.4631949 29.5213914,17.7983255 C29.0707268,21.21583 28.5929621,21.3212113 28.0529676,22.9354159 C27.6002956,24.2886295 27.1476236,25.0292529 26.4279654,26.4898175 C25.9823193,27.3949145 25.743437,27.8991688 25.2917687,28.6585048 C25.02679,29.101697 24.9023302,29.5665564 24.4325952,30.3002858 C24.1365015,30.7612057 23.6888481,31.1275779 23.4017878,31.5215266 C22.8015708,32.3448793 22.2404984,33.0303499 21.7516929,33.5848326 C20.6897705,34.7913003 20.2120058,35.2472959 20.2190318,35.2778269 C20.2190318,35.2778269 21.6583481,36.5266441 21.9233269,36.6605867 C22.5416106,36.9718061 23.2201167,37.5459862 24.2760169,38.1851679 C25.7474518,39.0764767 26.4219432,39.3591349 27.8150889,39.7363407 C29.6328029,40.2277917 30.5090394,40.7261367 33.1939566,39.6329292 C34.6513396,39.0410214 35.1471711,38.706165 35.6711063,38.4678261 C36.0705818,38.2856248 37.31819,37.7084901 37.4536905,37.6907624 C38.7193655,37.5272737 37.4747684,39.4694405 36.8384179,40.094834 C36.5393131,40.3883257 35.7564214,40.8984892 35.3027457,41.0865997 C34.8721553,41.2648615 33.8925369,41.5504742 33.4007203,41.6735832 C32.2795792,41.9523018 31.1393677,42.0054849 30.2460681,41.9995757 C27.1054679,41.9769236 25.7153332,41.6627496 23.4710436,40.8679582 C23.29138,40.8039415 23.1137238,40.639468 22.938075,40.5724967 C22.7644336,40.5074952 22.591796,40.5262077 22.4221694,40.4572667 C22.1883056,40.3627191 21.9574529,40.2277917 21.7326225,40.1293045 C19.5345034,39.1680698 17.8051156,38.0659985 17.0643796,37.448484 L17.0643796,37.448484 L16.284499,37.7616731 C16.284499,37.7616731 14.5661521,38.7593481 11.7417196,38.6460878 C10.3013996,38.5899502 9.56267097,38.3713087 8.70751232,38.0433464 C7.8844723,37.7272026 7.26618858,37.3362086 6.69708652,36.3306547 C6.27452573,35.5831371 5.65021976,34.410155 6.40300026,32.5763241 C6.60073061,32.0966916 6.93897998,31.6712271 7.82224244,30.8981029 C8.33814802,30.4460468 9.4442335,30.1121753 10.4218445,30.1121753 C11.0953321,30.1121753 11.709601,30.1407366 12.309818,30.2983161 C13.2723733,30.5524129 13.8585384,30.850829 14.0392057,30.9463616 C14.4507257,31.1650031 15.0268537,31.4210697 15.5136518,31.7785781 C16.3637919,32.4029867 17.3132991,33.0017886 17.3132991,33.0017886 C18.2929174,32.2178308 18.8158489,31.5678156 20.0835313,29.9309589 L20.0835313,29.9309589 L21.3622545,28.0478844 C22.3067431,26.6444424 22.8256598,26.072232 23.4750584,24.4964374 C23.8795525,23.7213434 24.8611782,21.52311 24.995675,20.8918073 C26.2141757,16.5465537 25.8438077,15.532136 25.8438077,13.8164896 C25.8438077,11.7413651 25.4754471,10.7663422 24.4295841,8.69712697 C23.7992559,7.44830976 22.9190045,6.53336403 21.8761526,5.84099929 C21.0440792,5.28947119 20.0624535,4.82953614 19.1410501,4.49960415 C17.426718,3.88602914 15.6652116,3.818073 14.2570102,4.61975849 C13.4440073,5.08264815 12.2094472,6.09115668 10.4911003,8.44598471 C10.3315108,8.6646262 10.1167174,8.89508616 9.9490983,9.13736458 C9.80556815,9.34418762 9.71021595,9.55888963 9.56066356,9.78344036 C9.02869867,10.584141 8.45758919,11.5030262 7.84532771,12.5578237 C4.6716051,18.6994831 4.59532335,22.1524429 4.86833174,25.9274558 C5.03494716,27.5840099 5.5046822,28.1444018 5.94832084,28.633883 C6.26047382,28.9785881 6.32671851,29.3508696 6.07177684,29.7704249 C5.66728278,30.4421073 4.8904133,31.5619063 3.72009054,31.8435796 C3.20017014,31.9686583 2.72441286,31.7322891 2.72441286,31.7322891 C2.65616076,31.7125917 2.57686788,31.6633481 2.50259354,31.5894827 C2.02181773,31.1305326 1.60929401,30.4864265 1.27305205,29.2405639 C1.04922531,28.4122869 1.01309185,27.3308979 1,25.8476812 C1,25.8476812 0.992013995,24.1537021 1.19375917,22.3031283 C1.24795937,21.8018286 1.21985556,21.2887105 1.30918551,20.7952899 C1.36940795,20.4663427 1.52397888,20.0842126 1.63137557,19.6784454 C1.92144699,18.577359 2.3460152,17.2989956 2.68627198,16.4135961 C4.59030481,11.47348 6.89381315,8.30810268 9.14713613,6.09017181 C9.94508347,5.30522913 13.866568,2 18.9894903,2 Z M145.049145,5 C146.412298,5 146.971131,5.68428386 147.532957,6.59600596 C147.901188,7.19167752 148.027924,8.26290175 147.994992,9.74961921 C147.984015,10.2458481 148.020938,11.2205834 147.942103,11.8339774 C147.841313,12.6117965 147.805388,13.4358908 147.523976,14.2954301 C147.293458,14.998421 146.67475,16.3817575 146.450219,16.9370612 C145.836501,18.4523315 145.441326,18.8747168 144.780706,20.2029167 C144.221873,21.3263237 143.590192,22.439885 142.931568,23.4992942 C142.003506,24.98995 141.020559,26.3752556 140.108464,27.5380459 C139.667385,28.0992571 139.626471,29.9926066 140.114452,33.136374 C140.355947,34.6979196 141.095403,37.2026939 141.847831,38.2660415 C142.30787,38.9178342 142.494481,39.1423187 142.544376,39.418986 C142.655145,40.020565 141.994525,40.0254879 141.444673,39.9861047 C140.395864,39.9093074 139.393956,39.3077283 138.606601,38.3881296 C138.37708,38.1193389 138.229389,37.7511056 138.040783,37.4330859 C137.845191,37.1032512 137.592718,36.8137844 137.418083,36.4376744 C136.801371,35.1124283 136.348317,33.6207879 136.284451,32.7868477 C135.859339,33.2456625 134.982171,34.1298163 134.558057,34.5108492 C134.454273,34.6033998 133.89544,35.1222741 133.791657,35.2148247 C132.482392,36.3667846 131.098283,36.4681964 129.558499,35.522014 C129.115424,35.2502696 128.656383,34.9676948 128.341041,34.5886311 C128.318089,34.5600783 128.159421,34.4281444 128.051646,34.2784881 C127.944869,34.1298163 127.850067,34.1170168 127.850067,34.1170168 C127.781211,34.0983097 127.659465,34.2135057 127.614559,34.2666731 C127.393021,34.5315254 126.641591,35.4146946 126.545791,35.498384 C124.909209,36.929965 123.685764,37.2391234 122.818576,37.1839869 C121.994297,37.1318041 121.039292,36.0812561 120.725946,35.63721 C119.611274,34.0569573 119.64221,31.7028239 120.488442,28.6939441 C120.706986,27.9151404 119.855764,27.6335502 119.657178,27.7733608 C118.274067,28.741204 117.756149,30.0359281 116.436904,32.3300021 C116.231334,32.7642023 115.942936,33.5942042 115.492876,34.2784881 C115.221443,34.6929967 114.820281,35.0533534 114.546852,35.2433775 C113.25954,36.1324543 111.988196,35.8341262 110.89448,35.5210294 C110.584128,35.4324171 109.657065,35.2266397 109.657065,35.2266397 C109.023388,34.9923094 108.211085,34.6673976 107.716118,34.1012635 C107.221152,33.5351293 107.163273,32.9896714 107.064479,32.9798256 C106.984646,32.9699798 106.714211,33.2860303 106.68128,33.3480589 C106.672298,33.3559356 106.65733,33.3697197 106.629388,33.3943342 C106.243195,33.8472415 105.295175,34.9470186 104.831144,35.3989414 C104.413017,35.8065579 103.684539,36.1806987 102.934106,36.4179828 C102.374275,36.5942228 101.80247,36.7547095 101.337441,36.7330487 C100.647881,36.7044959 100.476239,36.3894299 99.8794859,36.1885754 L99.8794859,36.1885754 L99.7058485,36.0024896 C98.9414451,35.4058334 98.4065622,34.7117037 98.1580812,33.9968979 C97.887646,33.221048 98.0153792,32.5180571 98.1630708,31.7057777 L98.1630708,31.7057777 L98.1999936,31.5039385 C98.4295143,30.217091 98.9494284,28.9469814 99.8864713,27.3854358 C100.91632,25.6683264 102.047957,24.3716331 103.112733,23.4215123 C103.518885,23.0591865 104.056761,22.3886867 104.960873,21.9741781 C105.590558,21.6856958 106.410845,21.5734536 107.075456,21.5616386 C108.304889,21.5389933 108.791872,21.633513 109.151121,21.7378786 C109.861637,21.9426715 110.30571,22.2488762 110.488328,22.5550809 C110.862547,23.1802899 110.547205,23.7828536 109.817729,23.8891883 C108.991455,24.0093072 108.78788,23.8054989 108.344805,23.4254506 C107.712127,22.8819619 107.448677,23.0778935 106.857911,23.3831137 C106.066564,23.793684 105.42191,24.61384 105.180414,24.8412783 C104.169526,25.9469628 103.433064,26.9295748 102.717558,28.1238716 C101.940182,29.4215495 101.426255,30.66606 101.189749,31.824912 C101.140851,32.0602269 101.08397,32.2945572 101.028087,32.5288875 C100.978191,32.7356495 100.927297,32.9443807 100.8784,33.1816647 C100.872412,33.3204907 100.852454,33.7438605 101.156818,33.8541336 C101.32347,33.9171468 101.721638,34.0569573 103.318304,32.0149361 C103.369197,31.9105705 103.445039,31.8111278 103.572772,31.6880552 C103.931024,31.2134871 104.223413,30.7940556 104.366115,30.5794169 C104.797215,29.9207321 105.157462,29.2216796 105.505735,28.5452723 C105.600537,28.3601711 105.696337,28.1750698 105.793135,27.9909532 C106.032634,27.5360767 106.271136,27.0802157 106.50864,26.585956 C106.694253,26.1950773 106.88685,25.7904144 107.392794,25.7146017 L107.392794,25.7146017 L107.459654,25.7047559 C108.326843,25.5738066 109.149125,25.4487648 109.853654,25.9587778 C110.049245,26.1005575 110.176979,26.2206764 110.163008,26.3457182 C110.120097,26.7257665 110.150035,27.1077839 110.098143,27.4701098 C110.006335,28.1130412 109.885587,28.4960433 109.774819,29.0287017 L109.774819,29.0287017 L109.714944,29.312261 C109.585215,30.4652055 109.547294,30.9978639 109.681014,31.8475573 C109.681014,31.8475573 110.275772,34.2784881 110.898472,34.2784881 C112.313482,34.2784881 112.763131,32.4580585 113.218687,30.5303579 L113.320413,30.1009105 C113.452138,29.5485605 113.658707,28.8859374 113.817375,28.3641094 C114.009973,27.7329929 114.019952,27.2377486 114.051886,26.7375814 C114.105773,25.8869034 114.533879,25.1287759 115.134624,24.8895227 C115.840151,24.6099017 116.581602,24.8107562 117.192326,25.1002231 C117.568541,25.2794168 117.377939,26.1990156 117.668332,26.2118151 C117.911824,26.2236301 118.225169,25.7618616 118.33494,25.6624189 C119.786907,24.3450494 120.429565,24.3401265 121.904485,24.3864018 C122.454336,24.4041242 123.52011,24.7999258 124.011085,25.5216238 C124.409253,26.1084341 124.549959,26.696229 124.476114,27.5065393 C124.454159,27.7526846 124.450168,28.3887239 124.225637,29.1960804 C124.053995,29.815382 123.680775,30.5351107 123.504144,31.2558241 C123.398365,31.6890398 123.325517,32.1242246 123.247679,32.5367641 C123.208761,32.741557 123.123938,32.9414269 123.095996,33.1334202 C123.055082,33.415995 123.05109,33.6818319 123.040113,33.9220697 C123.018159,34.4064836 123.291588,34.8456068 123.581981,34.8810517 C124.476114,34.9824635 125.841262,33.3726735 126.164587,32.9355194 C126.70446,32.2049603 127.036765,30.8875908 127.391026,30.0477431 C127.488821,29.815382 127.549694,29.335891 127.951854,28.4714288 C128.597506,27.0812002 129.109436,26.8478545 129.510599,26.4303921 C130.334877,25.5688837 131.150174,24.5852872 132.54526,23.9915848 C133.092118,23.758239 134.42733,23.6282743 134.936267,23.7080254 C134.997139,23.7168866 135.974099,23.9295562 136.05493,23.946294 C136.441124,24.0280143 136.506986,24.0132456 136.619751,23.5701841 C136.630728,23.5308008 136.705571,23.283671 136.830311,22.8475015 C136.894177,22.6220325 136.971017,22.3463498 137.057836,22.0234072 C137.142658,21.7093258 137.238458,21.3499537 137.340246,20.94726 C137.42906,20.6026566 137.522864,20.2255621 137.62066,19.8189301 C137.889099,18.7083226 138.122612,17.3742152 138.488847,15.8441762 C138.902982,14.1093443 139.44984,12.4700168 139.591544,12.114583 C139.742229,11.7305964 140.538566,9.89238347 140.727172,9.51528891 C141.325921,8.31606913 142.166166,7.19069294 142.936557,6.14014491 C143.438509,5.45684563 144.237839,5 145.049145,5 Z M82.0664145,22.6674893 C83.0444616,22.0942636 84.1356298,21.9148869 84.6601915,22.0357712 C85.4760649,22.222947 86.370022,22.6353185 86.4300863,23.603368 C86.5171796,24.9886635 84.487006,27.6071741 84.1886866,28.1072843 C84.1616577,28.1531033 84.1326266,28.1969726 84.1386331,28.2486409 C84.1436384,28.3003092 84.207707,28.4367915 84.2347359,28.4826106 C84.4209353,28.803344 85.978603,30.0307099 87.4061313,31.3331411 C88.8897197,32.6872406 89.2541098,33.8473402 88.8416682,36.0388562 C88.4742749,37.9934778 85.9946201,38.9235073 85.5291217,38.9693264 C84.040528,39.1145825 82.157512,38.7490049 81.1033835,37.7643825 C80.5087468,37.2067548 80.1603738,36.7661119 79.9861874,36.1626651 C79.9000952,35.8643538 79.897092,35.3418215 79.9661659,35.2316608 C80.1003095,35.0123142 80.344571,34.805641 80.5598015,34.8826561 C80.9101766,35.1556207 81.0983781,35.8000121 81.6229397,36.171439 C82.5209011,36.8080315 83.7802494,36.5857603 84.4599771,35.8351076 C84.9264765,35.3213492 85.2067766,34.7832189 85.2067766,34.2411892 C85.2077777,33.5217325 84.7813211,32.7944767 84.2927981,32.1071908 C83.8333062,31.4608496 83.2416728,30.8496038 82.6750661,30.3124484 C82.6210083,30.2598053 82.5038829,30.253956 82.4678443,30.3212223 C82.2516128,30.7189707 82.2426031,30.7969606 81.4537586,31.8176533 C81.2064938,32.136437 80.8030619,32.6199743 80.3635914,33.147381 C79.9061016,33.6972097 79.2864382,34.8943545 78.9010256,35.4081129 C78.0401038,36.5545643 77.6336687,36.6023332 76.7777523,37.1482624 C76.3532979,37.4202521 75.9028156,37.5811063 75.4273065,37.5577093 C73.7144727,37.4719204 72.8485456,36.7475893 72.4611309,35.7970875 C71.8865157,34.3874202 72.3770408,32.5098136 72.5822605,31.7152916 C72.742432,31.0894227 74.1959882,27.5028626 71.8785071,29.019766 C71.1687472,29.4847807 70.1927022,30.7472421 69.3758277,31.9648592 C68.6370367,33.0664665 68.0123679,34.6847567 67.8702157,35.1487966 C67.7681064,35.4812285 67.5368588,35.9481929 67.302608,36.1499918 C66.9962801,36.4141825 66.7660336,36.3771373 66.3065416,36.3469163 C66.1083294,36.333268 65.7569532,36.3040218 65.4996778,36.1314692 C65.2223809,35.9452683 64.9721129,35.7249469 65.0081515,34.9996409 C65.0301751,34.5550985 65.2924559,34.1066566 64.8830176,34.0871592 C64.7198429,34.0540135 64.3754742,34.4780835 63.3453713,35.4597812 C62.8498408,35.9316201 62.308261,36.2065345 61.7877036,36.4902227 C60.6594957,37.1034182 59.6063682,37.251599 58.4080853,37.050775 C57.4150221,36.8840716 56.6702247,36.4999714 55.6651487,35.7863639 C55.5930715,35.7346956 55.5029751,35.7571177 55.4268936,35.8068363 C53.9443063,36.7826848 50.6637941,38.3268846 49.1651897,38.3268846 L49.1651897,38.3268846 C47.676596,38.3259097 46.2590783,37.8111765 45.1078458,37.0410263 C43.8334814,36.1889867 42.8234,35.4022637 42.4730249,34.2753098 C42.1626926,33.2770392 42.0475694,31.8732211 42.0085276,30.8769003 C41.972489,29.9780668 42.0505726,29.1026302 42.2447805,28.29446 C42.2918309,28.1024099 42.3358781,27.90841 42.3809263,27.7144102 C42.5761353,26.8633455 42.7883625,25.9888838 43.3179295,25.1787638 C43.716356,24.5694678 43.9015543,23.9494482 44.4401309,23.4376395 C44.8685896,23.0301423 45.8206089,22.6089969 46.714566,22.4276704 C47.2781694,22.3136102 47.9358735,22.1800525 48.4754512,22.1800525 C48.7297235,22.1800525 48.9839957,22.2112485 49.2412711,22.2541429 C51.5427351,22.6333688 52.0582871,23.3343029 52.1974361,25.1485428 C52.2845293,26.2852454 50.6968295,28.4582388 49.5926473,29.4262883 C49.0390546,29.9108005 48.6736634,30.4762272 47.6055199,30.9041967 C47.1029818,31.1059956 46.3631898,31.2532015 45.7064867,30.9646389 C45.6223967,30.9266188 45.3511062,31.1196438 45.3420966,31.2083573 C45.2049498,32.5000649 45.5483174,34.1875711 46.6054492,35.8575297 C46.8427032,36.2318812 47.2341222,36.780735 47.8938285,36.9074686 C48.3893591,37.0020313 48.6356227,37.0000816 49.4735198,36.6618004 C50.1902872,36.372263 51.4346194,35.6898514 51.9221413,35.4090878 C52.8090909,34.898254 53.8902484,34.1973199 54.0183856,33.9487271 C54.0784499,33.8297925 53.9523149,33.4905365 53.7961477,33.1717528 L53.7390866,33.0518434 C53.3696911,32.2699947 53.0453439,31.9716834 52.9542463,31.2151814 C52.8451295,30.3036746 52.9812753,28.9359268 53.2785936,28.0205205 C53.4908208,27.3693049 53.9603235,26.7141898 54.4958969,26.118542 C54.9623963,25.5999093 55.5099826,25.1192965 56.1616803,24.8024626 C57.692319,24.0596089 60.0548484,24.2311867 61.3772642,25.3279195 C62.8918858,26.5845316 62.8508419,27.7875257 62.0680037,29.4262883 C61.4843789,30.6468301 60.5483768,31.4627993 59.4592107,32.5936527 C58.8665762,33.2078231 58.2238881,33.7274308 57.4700811,34.3357519 C57.287886,34.4829579 57.3109107,34.9021535 57.4470564,35.1020026 C58.0116609,35.9306452 58.3089792,35.8799518 58.9146277,35.6742534 C59.5222782,35.4675802 60.7365783,34.6408874 61.7426554,33.7771493 C62.9939951,32.7038135 63.7848418,31.6168294 64.6077228,30.1096747 C65.0491955,29.3015045 65.4546295,28.7165803 65.6948868,27.5350334 C65.7749725,27.1392347 65.7109039,26.4470744 66.0622801,26.0941702 C66.4046466,25.7510147 67.0483358,25.7003212 67.3987109,25.787085 C67.8722179,25.9040698 68.2476198,26.0834466 68.5729681,26.3008434 C68.7561642,26.4246524 69.0304579,26.8233757 69.059489,27.052471 C69.115549,27.5116365 69.0244515,27.878189 69.450908,27.5603801 C69.9174075,27.2259985 70.1686765,27.0251745 70.7853367,26.6937175 C71.2408244,26.4490242 71.8174417,26.1175672 72.7894824,26.2384515 C73.1909122,26.2891449 73.7114695,26.4129539 74.1279154,26.6303507 C74.5013151,26.8243505 74.8717117,27.1343604 75.22509,27.4970134 C75.4363162,27.7144102 75.6515466,28.0273446 75.8707813,28.3500278 C76.0499732,28.6151934 76.3703161,29.4116652 76.298239,29.8181875 C76.2511886,30.0804285 76.2201554,30.4265086 76.0259474,31.1225684 C75.9418574,31.4257541 75.671568,32.5897533 75.5764662,32.962155 C75.0408928,35.0708067 75.5934844,35.5640927 75.7036023,35.554344 C76.2041382,35.3973893 77.7337759,33.6357927 78.0581231,33.0898634 C78.641748,32.1062159 79.0531885,31.495945 79.6688476,30.7082471 C79.9621616,30.3329208 80.5147532,29.5052531 80.846108,28.9554243 C81.1163974,28.5089322 80.2164339,27.9639778 79.7709569,27.2737673 C79.5186868,26.882843 79.0712078,26.6937175 79.0712078,25.517045 C79.0712078,24.4719805 79.6578358,23.9981919 80.2294478,23.5546244 C80.832093,23.086685 81.1964831,23.1783231 82.0664145,22.6674893 Z M33.2377523,22.0482335 C33.9576396,21.8361513 35.1331032,22.3673479 35.5963684,22.7875483 C35.966404,23.1245014 36.178814,23.3613596 36.0557892,23.7528198 C35.9145029,24.2037424 35.666531,24.2909538 35.3282128,24.7904372 C34.7678733,25.6189455 34.6131311,25.9301316 34.3334419,26.507907 C33.1723953,28.9012652 32.4150239,31.49184 32.5322819,34.1418771 C32.5351653,34.2152139 32.5745717,34.4600005 32.6447343,34.4758571 C32.8263881,34.5154986 33.0339924,34.0992624 33.3050315,33.7682555 C33.9768622,32.9447025 34.9206931,31.3421931 35.4281705,30.593959 C35.8895135,29.9141066 36.7583762,28.4017817 37.0890053,27.9340115 C37.3715779,27.533632 37.8031259,27.3770479 38.2904194,27.3512809 C38.8824763,27.3195676 39.3899536,27.6327358 39.6504202,27.842836 C39.963749,28.0965419 40.1271413,28.56233 39.8801306,29.3640802 C39.8070846,29.6019294 39.5639184,30.0617713 39.5197063,30.6851346 C39.4783777,31.2510176 39.4322434,31.9070851 39.4591551,32.3936851 C39.5418124,33.883216 39.6533036,34.8574069 39.7388443,35.2231001 C39.8753249,35.8058308 39.6004414,36.3102694 38.1750837,35.4569852 C37.8136983,35.2399478 37.4994084,34.9941702 37.3023765,34.6354143 C37.1716626,34.396574 37.1063057,34.0388091 37.064977,33.8594311 C37.0025035,33.5839224 36.9544469,33.3708491 36.9563692,33.2073277 C36.567111,34.036827 35.6578808,35.1448081 34.39976,36.0872858 C34.0095407,36.3796421 33.6289327,36.8087618 33.082049,36.9346237 C32.511137,37.0634588 32.0084654,37.0386828 31.1780479,36.5193786 C30.6542314,36.1923359 30.278429,35.811777 30.0150791,35.4460838 C29.6431213,34.9307438 29.3096087,34.4788302 29.2798136,34.2132319 C29.238485,33.8415924 29.348054,33.2162471 29.4047607,32.4135058 C29.4326335,32.006189 29.6287043,31.2698473 29.7248174,30.8664946 C29.7930577,30.5830576 29.84592,29.7495942 29.9977787,29.1995678 C30.080436,28.9022562 29.1144991,30.0488878 27.2133814,29.3948024 C26.7731833,29.1886664 27.0163495,29.0885715 27.9217351,28.3076331 C29.0914319,27.2977648 30.0093123,25.9073377 30.3207188,25.4187557 C30.9464153,24.4376275 31.1309525,23.8618341 31.6941754,23.1601788 C32.1612852,22.5774481 32.4592359,22.2771634 33.2377523,22.0482335 Z M9.79553107,33.4331624 C8.63524539,33.2489914 7.9396762,33.8645362 7.9396762,34.3323502 C7.9396762,35.3467679 8.50175231,35.3664654 8.89520559,35.614653 C9.59980814,36.0588301 10.4258593,36.3030783 11.5891561,36.1986819 C12.4523444,36.120877 14.2499842,35.2571446 14.2499842,35.2571446 C14.2499842,35.2571446 14.2499842,35.116308 13.0144205,34.4938691 C11.8190051,33.8921126 11.0963358,33.6399854 9.79553107,33.4331624 Z M136.234555,25.6535577 C136.081874,25.5718374 135.428239,25.3896899 134.892358,25.821921 C134.135938,26.4313767 131.480484,29.7041243 131.08531,30.9712802 C130.734043,32.0986255 130.206146,33.6119267 130.718077,34.1317855 C130.827847,34.2420586 130.953585,34.2863647 131.093293,34.2775035 C131.544351,34.2509198 132.139109,33.6847857 132.76081,33.0950216 C132.941433,32.9227199 133.121058,32.7523874 133.295693,32.5968236 C134.201801,31.7874979 135.670733,29.8803643 136.101832,28.6959132 C136.541913,26.6607841 136.657671,25.8741038 136.234555,25.6535577 Z M59.4051528,26.1741098 C58.8455537,25.8504518 57.7463769,26.581607 57.41302,27.1889533 C57.2748721,27.4394958 56.3398711,29.5627706 56.6712258,31.6918946 C56.6792344,31.7435629 56.7072644,31.9648592 56.7613223,31.9648592 C56.8634316,31.9648592 56.9014723,31.8956432 57.0095881,31.7601358 C57.1857767,31.5388395 57.3719761,31.3224175 57.4040104,31.2951211 C57.4760875,31.2327291 58.4381175,30.0248607 59.0407627,28.7701983 C59.4121603,27.9961487 59.8766576,26.7522099 59.7114808,26.4792453 C59.6283918,26.2832957 59.5873479,26.2784213 59.4051528,26.1741098 Z M49.030045,23.8724332 C48.7757728,23.7057298 48.5265059,23.6472374 48.193149,23.8636593 C47.9769175,24.0040411 47.6295456,24.405689 47.4984052,24.5772668 C47.00788,25.2167839 46.7636185,25.7012961 46.3321566,26.6371748 L46.3321566,26.6371748 L46.226043,26.8633455 C46.1559679,27.0115263 46.0858929,27.1616568 46.0188211,27.3117874 C45.9417386,27.4892144 45.8696614,27.6676162 45.8105982,27.8460181 C45.7955821,27.8918372 45.7034835,28.1803998 45.6524288,28.3890227 C45.6073806,28.5683995 45.4532156,29.2537357 45.4652284,29.3268512 C45.4802445,29.4184893 45.3971555,29.5959163 45.5072734,29.6495344 C45.6514278,29.7197253 45.7505339,29.5081777 45.8296185,29.4623586 C45.9847847,29.3707205 46.5323709,28.9563992 47.0118843,28.5995954 C48.2972605,27.6432444 49.3393762,25.8884719 49.3133483,24.4973272 C49.3103451,24.375468 49.3043387,24.0518099 49.030045,23.8724332 Z M84.4429589,23.881207 C84.0385259,23.8392875 82.9133212,24.4388347 82.3877585,24.9145731 C82.031377,25.2372563 82.101452,25.8826226 82.7971969,26.4470744 C82.7971969,26.4470744 84.8183608,23.9192271 84.4429589,23.881207 Z M145.270235,6.98864902 L145.232761,6.99673046 C145.177876,7.02036041 144.863533,7.27438233 144.848564,7.33542636 C144.235844,7.99312653 143.66304,10.4427643 142.735976,12.8234814 C141.783965,15.2721346 140.641351,21.3154933 140.633368,21.3469999 L140.625282,21.3865615 C140.597258,21.5357964 140.524817,22.0029498 140.582474,22.0204534 C140.714199,22.0598367 141.037524,21.7191716 141.191203,21.511425 C141.688165,20.8350178 142.104296,20.1655026 142.268952,19.8632362 C143.12217,18.3016906 143.234934,17.6006689 143.577219,16.7765745 C146.38236,10.0312094 146.00415,7.1513097 145.390432,7.00263795 C145.390432,7.00263795 145.287647,6.9740851 145.232761,6.99673046 Z M104.361657,1.37974806 C104.342693,1.37974806 104.323728,1.38073969 104.303765,1.37974806 C104.278812,1.37677317 104.245873,1.38173132 104.218923,1.39363087 C104.062214,1.42040485 103.903509,1.48684401 103.745803,1.58898181 C102.745662,2.23949053 100.74638,7.4673594 100.356105,8.50857 C99.2142285,11.5518799 97.2099551,18.0202768 97.0722113,18.5299742 L97.0722113,18.5299742 L97.0490941,18.6331985 C97.0093282,18.8623868 97.0687177,19.0096748 97.2259254,19.0704121 C97.2608605,19.0842949 97.29879,19.0902446 97.340712,19.0893589 C98.0483962,19.0803283 99.6913413,17.115911 100.258287,16.2363359 C101.279389,14.6536958 103.108987,11.6540177 103.894526,9.35938781 C104.685056,7.04889189 105.433664,3.60992201 105.350818,2.66985758 C105.303906,2.13933598 105.132225,1.7486341 104.853743,1.53940035 C104.71001,1.4323044 104.541323,1.3777648 104.361657,1.37974806 Z" id="Logo"></path>
        </g>
    </g>
</svg>